<?xml version="1.0" encoding="UTF-8" standalone="no"?>
<svg
   xmlns:dc="http://purl.org/dc/elements/1.1/"
   xmlns:cc="http://creativecommons.org/ns#"
   xmlns:rdf="http://www.w3.org/1999/02/22-rdf-syntax-ns#"
   xmlns:svg="http://www.w3.org/2000/svg"
   xmlns="http://www.w3.org/2000/svg"
   width="57.493458mm"
   height="65.245377mm"
   viewBox="0 0 57.493458 65.245377"
   version="1.1"
   id="svg1276">
  <defs
     id="defs1270" />
  <metadata
     id="metadata1273">
    <rdf:RDF>
      <cc:Work
         rdf:about="">
        <dc:format>image/svg+xml</dc:format>
        <dc:type
           rdf:resource="http://purl.org/dc/dcmitype/StillImage" />
        <dc:title></dc:title>
      </cc:Work>
    </rdf:RDF>
  </metadata>
  <g
     id="layer1"
     transform="translate(-99.009224,-85.305882)">
    <g
       id="g1268"
       transform="translate(-17.965911,-28.637949)">
      <g
         id="g996"
         transform="translate(47.046301,-9.9254891)">
        <path
           style="fill:#e44d26;fill-opacity:1;stroke:none;stroke-width:0.264583px;stroke-linecap:butt;stroke-linejoin:miter;stroke-opacity:1"
           d="m 69.928834,123.86932 h 28.746728 v 65.24538 l -23.25578,-6.29844 z"
           id="path992" />
        <path
           style="fill:#f16529;fill-opacity:1;stroke:none;stroke-width:0.264583px;stroke-linecap:butt;stroke-linejoin:miter;stroke-opacity:1"
           d="M 127.42229,123.86932 H 98.675562 v 65.24538 l 23.255778,-6.29844 z"
           id="path994" />
      </g>
      <g
         id="g1012"
         transform="matrix(-0.550588,0,0,-0.550588,180.123,167.376)">
        <path
           id="path998"
           style="fill:#01a1ef;fill-opacity:1;stroke:none;stroke-width:0.90069;stroke-linecap:square;stroke-opacity:0.96"
           d="M 550.75969,449.61947 H 537.6624 v 0 c -15.6011,0 -27.5475,14.80391 -26.81161,32.59773 l 0.63867,15.44825 h 39.27019"
           transform="matrix(-0.48054686,0,0,-0.48054686,327.14661,303.995)" />
        <path
           id="path1248"
           style="fill:#31bafe;fill-opacity:1;stroke:none;stroke-width:0.90069;stroke-linecap:square;stroke-opacity:0.96"
           d="m 550.75931,556.3459 h 5.61316 7.35992 c 13.95153,0 25.6906,-12.17671 26.34118,-27.76766 l 1.93316,-46.36104 c 0.74209,-17.79382 -11.19954,-32.59773 -26.80017,-32.59773 h -14.44687"
           transform="matrix(-0.48054686,0,0,-0.48054686,327.14661,303.995)" />
        <path
           id="path1246"
           style="fill:#01a1ef;fill-opacity:1;stroke:none;stroke-width:0.90069;stroke-linecap:square;stroke-opacity:0.96"
           d="m 550.75908,508.52384 h -38.82065 -22.7259 c -14.69053,0 -25.29435,13.13693 -23.82059,28.95851 l 2.48409,26.66719 c 1.34424,14.43149 13.21104,25.71634 26.64492,25.71634 h 20.78145 l -0.30409,-7.36135 c -0.59148,-14.30184 10.14956,-26.15863 24.10109,-26.15863 h 11.65991"
           transform="matrix(-0.48054686,0,0,-0.48054686,327.14661,303.995)" />
        <path
           id="path1244"
           style="fill:#31bafe;fill-opacity:1;stroke:none;stroke-width:0.90069;stroke-linecap:square;stroke-opacity:0.96"
           d="m 550.75965,497.66545 h 0.20703 l 0.003,10.85839 h -0.21093"
           transform="matrix(-0.48054686,0,0,-0.48054686,327.14661,303.995)" />
        <circle
           style="fill:#ffffff;fill-opacity:1;stroke:none;stroke-width:0.432825;stroke-linecap:square;stroke-opacity:0.96"
           id="circle1000"
           cx="-71.316727"
           cy="-73.793175"
           r="2.7706127"
           transform="scale(-1)" />
        <path
           id="path1004"
           style="fill:#ffd25d;fill-opacity:1;stroke:none;stroke-width:0.90069;stroke-linecap:square;stroke-opacity:0.96"
           d="m 550.76049,642.47947 11.49977,-2e-5 v 0 c 12.62081,0 23.19265,-9.95266 23.71836,-22.65736 l 0.48567,-11.74875 H 551.5197 l 0.002,-8.69321 h 35.30167 20.55458 c 13.2866,0 25.01199,-11.03659 26.32641,-25.14707 l 2.42769,-26.06136 c 1.43958,-15.45334 -9.05162,-28.28196 -23.56651,-28.28196 h -22.45447 l -0.34936,8.44517 c -0.64486,15.59919 -12.38298,27.782 -26.33832,27.782 h -12.66407"
           transform="matrix(-0.48054686,0,0,-0.48054686,327.14661,303.995)" />
        <path
           id="path1253"
           style="fill:#ffc223;fill-opacity:1;stroke:none;stroke-width:0.90069;stroke-linecap:square;stroke-opacity:0.96"
           d="m 550.75961,556.11691 h -4.61329 -7.36182 c -13.95487,0 -24.69447,11.86299 -24.09823,26.17193 l 1.56521,37.53325 c 0.53,12.7047 11.10517,22.65736 23.72599,22.65736 l 10.78302,2e-5"
           transform="matrix(-0.48054686,0,0,-0.48054686,327.14661,303.995)" />
        <circle
           style="fill:#ffffff;fill-opacity:1;stroke:none;stroke-width:0.432825;stroke-linecap:square;stroke-opacity:0.96"
           id="circle1006"
           cx="55.248569"
           cy="5.047492"
           r="2.7706127" />
      </g>
    </g>
  </g>
</svg>
